<svg xmlns="http://www.w3.org/2000/svg" width="44" height="32" viewBox="0 0 44 32">
  <path id="import_contacts_FILL0_wght400_GRAD0_opsz48_1_" data-name="import_contacts_FILL0_wght400_GRAD0_opsz48 (1)" d="M12.4,33a21.666,21.666,0,0,1,5.225.625A23.192,23.192,0,0,1,22.6,35.5V14.15a19.022,19.022,0,0,0-4.875-2.325A17.663,17.663,0,0,0,12.4,11a14.728,14.728,0,0,0-3.725.475A36.03,36.03,0,0,0,5,12.65H5v21.7H5a14.111,14.111,0,0,1,3.525-1.025A23.841,23.841,0,0,1,12.4,33Zm13.2,2.5a25.161,25.161,0,0,1,4.9-1.875A20.169,20.169,0,0,1,35.6,33a26.78,26.78,0,0,1,3.925.3A19.567,19.567,0,0,1,43,34.1h0V12.65h0a14.859,14.859,0,0,0-3.6-1.25,18.4,18.4,0,0,0-3.8-.4,16.717,16.717,0,0,0-5.225.825A19.482,19.482,0,0,0,25.6,14.15ZM24.1,40a20.124,20.124,0,0,0-5.55-2.925A18.9,18.9,0,0,0,12.4,36.05a14.4,14.4,0,0,0-3.6.45,35.3,35.3,0,0,0-3.5,1.1,2.142,2.142,0,0,1-2.225-.15A2.248,2.248,0,0,1,2,35.45V12.3a2.766,2.766,0,0,1,.35-1.375A2.388,2.388,0,0,1,3.4,9.95,19.329,19.329,0,0,1,7.775,8.475,22.568,22.568,0,0,1,12.4,8a22.186,22.186,0,0,1,6.125.85,19.544,19.544,0,0,1,5.575,2.6,18.982,18.982,0,0,1,5.475-2.6A21.481,21.481,0,0,1,35.6,8a22.209,22.209,0,0,1,4.6.475A19.411,19.411,0,0,1,44.55,9.95a2.547,2.547,0,0,1,1.075.975A2.623,2.623,0,0,1,46,12.3V35.45a2.37,2.37,0,0,1-1.125,2.125,1.916,1.916,0,0,1-2.225.025,23.808,23.808,0,0,0-3.45-1.125,15.2,15.2,0,0,0-3.6-.425,17.634,17.634,0,0,0-6.05,1.05A22,22,0,0,0,24.1,40ZM13.8,23.55Z" transform="translate(-2 -8)" fill="#343a40"/>
</svg>
